<?xml version="1.0" encoding="utf-8"?>
<svg width="1024" height="1024" viewBox="0 0 1024 1024" fill="none" xmlns="http://www.w3.org/2000/svg" xmlns:bx="https://boxy-svg.com">
  <title>Rounded-Square Abstract Baby Face Icon</title>
  <desc>Flat abstract baby face on a rounded-square background. Cold bright blue foreground.</desc>
  <defs>
    <clipPath id="clip-rounded">
      <rect x="64" y="64" width="896" height="896" rx="200"/>
    </clipPath>
    <clipPath id="babyface-clip" clipPathUnits="userSpaceOnUse"/>
    <bx:grid x="56.238" y="62.81" width="906.18" height="899.097"/>
  </defs>
  <rect x="64" y="64" width="896" height="896" rx="200" fill="#0E3A8A"/>
  <g clip-path="url(#clip-rounded)">
    <rect x="0" y="0" width="1024" height="1024" fill="#1EA7FF" clip-path="url(#babyface-clip)" rx="40.573" ry="40.573"/>
  </g>
  <g transform="matrix(10.944804, 0, 0, 10.598989, 512.471375, 502.436127)" style="">
    <path fill="#1EA7FF" fill-rule="evenodd" d=" M 34 0 A 34 34 0 1 0 -34 0 A 34 34 0 1 0 34 0 M -10.5 -3.5 A 4.8 4.8 0 1 0 -10.5 6.1 A 4.8 4.8 0 1 0 -10.5 -3.5 M 10.5 -3.5 A 4.8 4.8 0 1 0 10.5 6.1 A 4.8 4.8 0 1 0 10.5 -3.5 M -22 9 Q 0 26 22 9 Q 0 18 -22 9 Z M -1.2 -19.5 Q 3.5 -23 7 -19.5 Q 2.8 -21.5 -1.2 -17.5 Z "/>
  </g>
</svg>